# Blender 3.6.7
# www.blender.org
mtllib broken ore.mtl
o Circle
v 0.000000 -0.000000 -1.000000
v -0.781832 -0.000000 -0.623490
v -0.974928 0.000000 0.222521
v -0.433884 0.000000 0.900969
v 0.433884 0.000000 0.900969
v 0.974928 0.000000 0.222521
v 0.781832 -0.000000 -0.623490
v -0.060640 1.513675 -0.427999
v -0.296815 1.513675 -0.314263
v -0.448754 1.387261 0.164579
v -0.208540 1.450581 0.433038
v 0.151121 1.387261 0.453464
v 0.430762 1.513675 0.036120
v 0.372432 1.513675 -0.219443
v 0.000000 2.467656 -0.102887
v -0.080441 2.467656 -0.064149
v -0.081190 2.404562 0.080730
v -0.096772 2.404562 0.061190
v 0.044641 2.467656 0.092698
v 0.100308 2.467656 0.022895
v 0.080441 2.467656 -0.064149
v 0.000725 2.746142 -0.000069
v -0.060595 0.661971 -0.733807
v -0.535933 0.661971 -0.504897
v -0.657721 0.788610 0.212274
v -0.321212 0.725291 0.667003
v 0.372982 0.661971 0.634847
v 0.701926 0.661971 0.222364
v 0.578804 0.725290 -0.461581
v -0.060640 1.896025 -0.285992
v -0.185790 1.896025 -0.225723
v -0.219636 2.022212 0.112330
v -0.158387 2.022212 0.189134
v 0.126590 1.959118 0.262868
v 0.292316 1.896025 0.004520
v 0.261406 1.896025 -0.130903
v -0.060595 0.063319 -0.948148
v -0.703512 0.063319 -0.638536
v 0.910892 0.063320 0.270059
v 0.465981 0.063320 0.827961
v -0.721757 0.725290 0.164736
v -0.468585 1.450581 0.106952
v 0.208540 1.450581 0.433038
v 0.321212 0.725291 0.667003
v 0.244120 0.788610 0.646578
v -0.284447 1.959118 0.064923
v -0.100308 2.467656 0.022895
v -0.126590 1.959118 0.262868
v -0.044641 2.467656 0.092698
v 0.468585 1.450581 0.106952
v 0.375776 1.450581 -0.299671
v -0.216669 1.386118 0.449918
v 0.000000 1.450581 -0.480635
v -0.375776 1.450581 -0.299671
v 0.000000 0.725290 -0.740318
v -0.578804 0.725290 -0.461581
v 0.721757 0.725290 0.164736
v -0.313083 0.789754 0.650123
v 0.000000 1.959118 -0.291761
v -0.228108 1.959118 -0.181910
v 0.284447 1.959118 0.064923
v 0.228108 1.959118 -0.181910
v 0.020651 0.002915 -0.779439
v -0.622266 0.002915 -0.469827
v 0.319580 0.002915 0.711210
v 0.764492 0.002915 0.153308
v -0.232897 0.722241 0.483616
v -0.136483 1.318605 0.283410
v -0.511603 0.727097 0.095749
v -0.302636 1.325749 0.048054
v 0.244120 0.727098 0.459685
v 0.151121 1.325749 0.266571
v -0.073758 1.959776 -0.004005
v 0.064688 2.342126 -0.035604
v -0.012509 1.959776 0.072799
v 0.049106 2.342126 -0.055145
v 0.248855 1.451239 0.077639
v 0.190524 1.451239 -0.177924
v 0.020317 1.451238 -0.259891
v -0.215859 1.451238 -0.146155
v 0.020651 0.601566 -0.565098
v -0.454687 0.601566 -0.336187
v 0.226581 0.601566 0.518096
v 0.555525 0.601566 0.105613
v 0.020317 1.833588 -0.117884
v -0.104833 1.833588 -0.057615
v 0.110408 1.833588 0.046040
v 0.079499 1.833588 -0.089384
vn 0.7441 0.3070 0.5934
vn -0.1377 -0.9483 -0.2859
vn -0.4129 0.3070 -0.8575
vn 0.9278 0.3070 -0.2118
vn 0.1377 0.9483 0.2859
vn -0.9278 0.3070 -0.2118
vn 0.4129 0.3070 -0.8575
vn -0.0000 0.3173 0.9483
vn -0.9245 0.3173 -0.2110
vn 0.4115 0.3173 -0.8544
vn 0.7414 0.3173 0.5913
vn -0.1332 -0.9517 -0.2766
vn -0.4115 0.3173 -0.8544
vn 0.9245 0.3173 -0.2110
vn -0.0000 0.3160 0.9487
vn 0.7422 0.3142 0.5919
vn 0.9257 0.3136 -0.2113
vn 0.4118 0.3147 -0.8552
vn -0.4116 0.3166 -0.8546
vn -0.9243 0.3179 -0.2110
vn -0.7413 0.3177 0.5912
vn -0.0000 0.3070 0.9517
vn 0.3094 -0.9483 -0.0706
vn -0.7441 0.3070 0.5934
vn 0.2481 0.9483 -0.1978
vn -0.2400 0.9517 -0.1914
vn -0.0125 0.9384 -0.3454
vn -0.7414 0.3173 0.5913
vn -0.0047 0.2825 0.9593
vn -0.7470 0.2825 0.6018
vn 0.0031 0.2818 0.9595
vn -0.7521 0.2818 0.5958
vn -0.7704 0.3122 0.5559
vn 0.0457 0.3122 0.9489
vn 0.5810 -0.1389 0.8019
vn 0.2779 0.9384 -0.2056
vn -0.2828 -0.9378 0.2014
vn 0.2481 0.9483 -0.1979
vn -0.9892 -0.1389 0.0457
vn 0.2400 -0.9517 0.1914
vn -0.9108 -0.1392 0.3888
vn 0.1332 0.9517 0.2766
vn 0.5789 -0.1433 0.8027
vn -0.9114 -0.1433 0.3857
vn 0.8718 -0.1392 -0.4697
vn -0.6538 -0.1433 -0.7430
vn 0.8698 -0.1433 -0.4721
vn 0.6519 -0.1392 -0.7454
vn -0.3094 0.9483 0.0706
vn -0.1732 -0.1433 -0.9744
vn -0.5817 -0.1392 0.8014
vn 0.0189 -0.9378 0.3467
vn 0.2667 -0.1433 0.9531
vt 0.435605 0.906865
s 0
usemtl Material.001
f 57/1/1 50/1/1 43/1/1 44/1/1
f 30/1/2 85/1/2 86/1/2 31/1/2
f 56/1/3 54/1/3 53/1/3 55/1/3
f 29/1/4 51/1/4 50/1/4 57/1/4
f 9/1/5 80/1/5 79/1/5 8/1/5
f 41/1/6 42/1/6 54/1/6 56/1/6
f 55/1/7 53/1/7 51/1/7 29/1/7
f 34/1/8 19/1/8 49/1/8 48/1/8
f 46/1/9 47/1/9 16/1/9 60/1/9
f 59/1/10 15/1/10 21/1/10 62/1/10
f 61/1/11 20/1/11 19/1/11 34/1/11
f 23/1/12 81/1/12 82/1/12 24/1/12
f 60/1/13 16/1/13 15/1/13 59/1/13
f 62/1/14 21/1/14 20/1/14 61/1/14
f 49/1/15 19/1/15 22/1/15
f 19/1/16 20/1/16 22/1/16
f 20/1/17 21/1/17 22/1/17
f 21/1/18 15/1/18 22/1/18
f 15/1/19 16/1/19 22/1/19
f 16/1/20 47/1/20 22/1/20
f 47/1/21 49/1/21 22/1/21
f 1/1/7 55/1/7 29/1/7 7/1/7
f 3/1/6 41/1/6 56/1/6 2/1/6
f 5/1/22 44/1/22 26/1/22 4/1/22
f 7/1/4 29/1/4 57/1/4 6/1/4
f 35/1/23 87/1/23 88/1/23 36/1/23
f 4/1/24 26/1/24 41/1/24 3/1/24
f 17/1/25 74/1/25 76/1/25 18/1/25
f 39/1/26 66/1/26 65/1/26 40/1/26
f 45/1/27 71/1/27 67/1/27 58/1/27
f 11/1/28 48/1/28 46/1/28 42/1/28
f 50/1/11 61/1/11 34/1/11 43/1/11
f 53/1/10 59/1/10 62/1/10 51/1/10
f 42/1/9 46/1/9 60/1/9 54/1/9
f 43/1/8 34/1/8 48/1/8 11/1/8
f 37/1/3 1/1/3 2/1/3 38/1/3
f 40/1/1 5/1/1 6/1/1 39/1/1
f 10/1/24 42/1/24 41/1/24 25/1/24
f 45/1/22 44/1/22 43/1/22 12/1/22
f 17/1/28 47/1/28 46/1/28 32/1/28
f 33/1/28 48/1/28 49/1/28 18/1/28
f 13/1/14 50/1/14 51/1/14 14/1/14
f 12/1/29 43/1/29 11/1/29 52/1/29
f 18/1/28 49/1/28 47/1/28 17/1/28
f 8/1/13 53/1/13 54/1/13 9/1/13
f 52/1/30 11/1/30 42/1/30 10/1/30
f 23/1/3 55/1/3 1/1/3 37/1/3
f 38/1/3 2/1/3 56/1/3 24/1/3
f 27/1/1 44/1/1 5/1/1 40/1/1
f 39/1/1 6/1/1 57/1/1 28/1/1
f 58/1/31 26/1/31 44/1/31 45/1/31
f 24/1/3 56/1/3 55/1/3 23/1/3
f 25/1/32 41/1/32 26/1/32 58/1/32
f 28/1/1 57/1/1 44/1/1 27/1/1
f 30/1/13 59/1/13 53/1/13 8/1/13
f 9/1/13 54/1/13 60/1/13 31/1/13
f 35/1/14 61/1/14 50/1/14 13/1/14
f 14/1/14 51/1/14 62/1/14 36/1/14
f 36/1/14 62/1/14 61/1/14 35/1/14
f 31/1/13 60/1/13 59/1/13 30/1/13
f 32/1/28 46/1/28 48/1/28 33/1/28
f 67/1/33 68/1/33 70/1/33 69/1/33
f 71/1/34 72/1/34 68/1/34 67/1/34
f 75/1/28 76/1/28 74/1/28 73/1/28
f 64/1/3 82/1/3 81/1/3 63/1/3
f 66/1/1 84/1/1 83/1/1 65/1/1
f 78/1/14 88/1/14 87/1/14 77/1/14
f 80/1/13 86/1/13 85/1/13 79/1/13
f 25/1/35 69/1/35 70/1/35 10/1/35
f 58/1/36 67/1/36 69/1/36 25/1/36
f 10/1/37 70/1/37 68/1/37 52/1/37
f 33/1/38 75/1/38 73/1/38 32/1/38
f 12/1/39 72/1/39 71/1/39 45/1/39
f 27/1/40 83/1/40 84/1/40 28/1/40
f 37/1/41 63/1/41 81/1/41 23/1/41
f 38/1/42 64/1/42 63/1/42 37/1/42
f 32/1/43 73/1/43 74/1/43 17/1/43
f 8/1/44 79/1/44 85/1/44 30/1/44
f 24/1/45 82/1/45 64/1/45 38/1/45
f 18/1/46 76/1/46 75/1/46 33/1/46
f 31/1/47 86/1/47 80/1/47 9/1/47
f 40/1/48 65/1/48 83/1/48 27/1/48
f 14/1/49 78/1/49 77/1/49 13/1/49
f 13/1/50 77/1/50 87/1/50 35/1/50
f 28/1/51 84/1/51 66/1/51 39/1/51
f 52/1/52 68/1/52 72/1/52 12/1/52
f 36/1/53 88/1/53 78/1/53 14/1/53
